# xmcd
#
# Track frame offsets:
# 150
# 32511
# 59163
# 76944
# 92050
# 111501
# 124873
# 143922
# 150263
# 171550
# 202291
# 211269
# 239020
#
# Disc length: 3528 seconds
#
#
# Revision: 0
# Processed by: cddbd v1.5.1PL2 Copyright (c) Steve Scherf et al.
# Submitted via: FreeRIP 2.945 
#
DISCID=c10dc60d
DTITLE=MOFRO - BlackWater
DYEAR=2001
DGENRE=Blues
TTITLE0=Blackwater
TTITLE1=Ho Cake
TTITLE2=Air
TTITLE3=Jookhouse
TTITLE4=Nare Sugar
TTITLE5=Free
TTITLE6=Florida
TTITLE7=Cracka Break
TTITLE8=Lozy Fo Acre
TTITLE9=Santa Claus
TTITLE10=Fog Giggin
TTITLE11=White House
TTITLE12=Brighter Day
EXTD=
EXTT0=
EXTT1=
EXTT2=
EXTT3=
EXTT4=
EXTT5=
EXTT6=
EXTT7=
EXTT8=
EXTT9=
EXTT10=
EXTT11=
EXTT12=
PLAYORDER=
